<mxfile host="Electron" modified="2024-05-22T07:22:32.674Z" agent="Mozilla/5.0 (Macintosh; Intel Mac OS X 10_15_7) AppleWebKit/537.36 (KHTML, like Gecko) draw.io/24.4.0 Chrome/120.0.6099.109 Electron/28.1.0 Safari/537.36" etag="ZTsc77xeDQqRUvyiFo3x" version="24.4.0" type="device">
  <diagram name="Page-1" id="BFdQ66ABjdLcpmXtD36v">
    <mxGraphModel dx="3330" dy="1640" grid="1" gridSize="10" guides="1" tooltips="1" connect="1" arrows="1" fold="1" page="0" pageScale="1" pageWidth="827" pageHeight="1169" math="0" shadow="0">
      <root>
        <mxCell id="0" />
        <mxCell id="1" parent="0" />
        <mxCell id="KnodmlbBTQH3kh3YxPPO-1" value="Week" style="text;html=1;align=center;verticalAlign=middle;resizable=0;points=[];autosize=1;strokeColor=#666666;fillColor=#f5f5f5;fontSize=16;fontColor=#333333;" parent="1" vertex="1">
          <mxGeometry x="-76" y="-249" width="60" height="30" as="geometry" />
        </mxCell>
        <mxCell id="KnodmlbBTQH3kh3YxPPO-2" value="Homework" style="text;html=1;align=center;verticalAlign=middle;resizable=0;points=[];autosize=1;strokeColor=#82b366;fillColor=#d5e8d4;fontSize=16;" parent="1" vertex="1">
          <mxGeometry x="30" y="-249" width="100" height="30" as="geometry" />
        </mxCell>
        <mxCell id="KnodmlbBTQH3kh3YxPPO-3" value="Lectures" style="text;html=1;align=center;verticalAlign=middle;resizable=0;points=[];autosize=1;strokeColor=#b85450;fillColor=#f8cecc;fontSize=16;" parent="1" vertex="1">
          <mxGeometry x="220" y="-249" width="80" height="30" as="geometry" />
        </mxCell>
        <mxCell id="KnodmlbBTQH3kh3YxPPO-4" value="Exercises" style="text;html=1;align=center;verticalAlign=middle;resizable=0;points=[];autosize=1;strokeColor=#6c8ebf;fillColor=#dae8fc;fontSize=16;" parent="1" vertex="1">
          <mxGeometry x="395" y="-249" width="90" height="30" as="geometry" />
        </mxCell>
        <mxCell id="KnodmlbBTQH3kh3YxPPO-5" value="Introduction" style="rounded=1;whiteSpace=wrap;html=1;fontSize=16;fillColor=#f8cecc;strokeColor=#b85450;" parent="1" vertex="1">
          <mxGeometry x="190" y="-200" width="140" height="60" as="geometry" />
        </mxCell>
        <mxCell id="KnodmlbBTQH3kh3YxPPO-6" value="01" style="text;html=1;align=center;verticalAlign=middle;resizable=0;points=[];autosize=1;strokeColor=#666666;fillColor=#f5f5f5;fontSize=16;fontColor=#333333;" parent="1" vertex="1">
          <mxGeometry x="-66" y="-185" width="40" height="30" as="geometry" />
        </mxCell>
        <mxCell id="KnodmlbBTQH3kh3YxPPO-8" value="02" style="text;html=1;align=center;verticalAlign=middle;resizable=0;points=[];autosize=1;strokeColor=#666666;fillColor=#f5f5f5;fontSize=16;fontColor=#333333;" parent="1" vertex="1">
          <mxGeometry x="-66" y="-115" width="40" height="30" as="geometry" />
        </mxCell>
        <mxCell id="KnodmlbBTQH3kh3YxPPO-9" value="Concurrency &amp;amp; Parallelism" style="rounded=1;whiteSpace=wrap;html=1;fontSize=16;fillColor=#f8cecc;strokeColor=#b85450;" parent="1" vertex="1">
          <mxGeometry x="190" y="10" width="140" height="60" as="geometry" />
        </mxCell>
        <mxCell id="KnodmlbBTQH3kh3YxPPO-10" value="Go Fundamentals #1" style="rounded=1;whiteSpace=wrap;html=1;fontSize=16;fillColor=#f8cecc;strokeColor=#b85450;" parent="1" vertex="1">
          <mxGeometry x="190" y="-130" width="140" height="60" as="geometry" />
        </mxCell>
        <mxCell id="KnodmlbBTQH3kh3YxPPO-11" value="Go Fundamentals #2" style="rounded=1;whiteSpace=wrap;html=1;fontSize=16;fillColor=#f8cecc;strokeColor=#b85450;" parent="1" vertex="1">
          <mxGeometry x="190" y="-60" width="140" height="60" as="geometry" />
        </mxCell>
        <mxCell id="KnodmlbBTQH3kh3YxPPO-12" value="03" style="text;html=1;align=center;verticalAlign=middle;resizable=0;points=[];autosize=1;strokeColor=#666666;fillColor=#f5f5f5;fontSize=16;fontColor=#333333;" parent="1" vertex="1">
          <mxGeometry x="-66" y="-45" width="40" height="30" as="geometry" />
        </mxCell>
        <mxCell id="KnodmlbBTQH3kh3YxPPO-13" value="Go Advanced Features #1" style="rounded=1;whiteSpace=wrap;html=1;fontSize=16;fillColor=#f8cecc;strokeColor=#b85450;" parent="1" vertex="1">
          <mxGeometry x="190" y="80" width="140" height="60" as="geometry" />
        </mxCell>
        <mxCell id="KnodmlbBTQH3kh3YxPPO-14" value="Go Advanced Features #2" style="rounded=1;whiteSpace=wrap;html=1;fontSize=16;fillColor=#f8cecc;strokeColor=#b85450;" parent="1" vertex="1">
          <mxGeometry x="190" y="150" width="140" height="60" as="geometry" />
        </mxCell>
        <mxCell id="KnodmlbBTQH3kh3YxPPO-15" value="04" style="text;html=1;align=center;verticalAlign=middle;resizable=0;points=[];autosize=1;strokeColor=#666666;fillColor=#f5f5f5;fontSize=16;fontColor=#333333;" parent="1" vertex="1">
          <mxGeometry x="-66" y="25" width="40" height="30" as="geometry" />
        </mxCell>
        <mxCell id="KnodmlbBTQH3kh3YxPPO-16" value="05" style="text;html=1;align=center;verticalAlign=middle;resizable=0;points=[];autosize=1;strokeColor=#666666;fillColor=#f5f5f5;fontSize=16;fontColor=#333333;" parent="1" vertex="1">
          <mxGeometry x="-66" y="95" width="40" height="30" as="geometry" />
        </mxCell>
        <mxCell id="KnodmlbBTQH3kh3YxPPO-17" value="06" style="text;html=1;align=center;verticalAlign=middle;resizable=0;points=[];autosize=1;strokeColor=#666666;fillColor=#f5f5f5;fontSize=16;fontColor=#333333;" parent="1" vertex="1">
          <mxGeometry x="-66" y="165" width="40" height="30" as="geometry" />
        </mxCell>
        <mxCell id="KnodmlbBTQH3kh3YxPPO-18" value="REST API" style="rounded=1;whiteSpace=wrap;html=1;fontSize=16;fillColor=#f8cecc;strokeColor=#b85450;" parent="1" vertex="1">
          <mxGeometry x="190" y="220" width="140" height="60" as="geometry" />
        </mxCell>
        <mxCell id="KnodmlbBTQH3kh3YxPPO-19" value="Containerization" style="rounded=1;whiteSpace=wrap;html=1;fontSize=16;fillColor=#f8cecc;strokeColor=#b85450;" parent="1" vertex="1">
          <mxGeometry x="190" y="290" width="140" height="60" as="geometry" />
        </mxCell>
        <mxCell id="KnodmlbBTQH3kh3YxPPO-20" value="Databases" style="rounded=1;whiteSpace=wrap;html=1;fontSize=16;fillColor=#f8cecc;strokeColor=#b85450;" parent="1" vertex="1">
          <mxGeometry x="190" y="360" width="140" height="60" as="geometry" />
        </mxCell>
        <mxCell id="KnodmlbBTQH3kh3YxPPO-21" value="Infrastructure" style="rounded=1;whiteSpace=wrap;html=1;fontSize=16;fillColor=#f8cecc;strokeColor=#b85450;" parent="1" vertex="1">
          <mxGeometry x="190" y="430" width="140" height="60" as="geometry" />
        </mxCell>
        <mxCell id="KnodmlbBTQH3kh3YxPPO-22" value="Observability" style="rounded=1;whiteSpace=wrap;html=1;fontSize=16;fillColor=#f8cecc;strokeColor=#b85450;" parent="1" vertex="1">
          <mxGeometry x="190" y="500" width="140" height="60" as="geometry" />
        </mxCell>
        <mxCell id="KnodmlbBTQH3kh3YxPPO-23" value="07" style="text;html=1;align=center;verticalAlign=middle;resizable=0;points=[];autosize=1;strokeColor=#666666;fillColor=#f5f5f5;fontSize=16;fontColor=#333333;" parent="1" vertex="1">
          <mxGeometry x="-66" y="235" width="40" height="30" as="geometry" />
        </mxCell>
        <mxCell id="KnodmlbBTQH3kh3YxPPO-24" value="08" style="text;html=1;align=center;verticalAlign=middle;resizable=0;points=[];autosize=1;strokeColor=#666666;fillColor=#f5f5f5;fontSize=16;fontColor=#333333;" parent="1" vertex="1">
          <mxGeometry x="-66" y="305" width="40" height="30" as="geometry" />
        </mxCell>
        <mxCell id="KnodmlbBTQH3kh3YxPPO-25" value="09" style="text;html=1;align=center;verticalAlign=middle;resizable=0;points=[];autosize=1;strokeColor=#666666;fillColor=#f5f5f5;fontSize=16;fontColor=#333333;" parent="1" vertex="1">
          <mxGeometry x="-66" y="375" width="40" height="30" as="geometry" />
        </mxCell>
        <mxCell id="KnodmlbBTQH3kh3YxPPO-26" value="10" style="text;html=1;align=center;verticalAlign=middle;resizable=0;points=[];autosize=1;strokeColor=#666666;fillColor=#f5f5f5;fontSize=16;fontColor=#333333;" parent="1" vertex="1">
          <mxGeometry x="-66" y="445" width="40" height="30" as="geometry" />
        </mxCell>
        <mxCell id="KnodmlbBTQH3kh3YxPPO-27" value="11" style="text;html=1;align=center;verticalAlign=middle;resizable=0;points=[];autosize=1;strokeColor=#666666;fillColor=#f5f5f5;fontSize=16;fontColor=#333333;" parent="1" vertex="1">
          <mxGeometry x="-66" y="515" width="40" height="30" as="geometry" />
        </mxCell>
        <mxCell id="KnodmlbBTQH3kh3YxPPO-28" value="CLI" style="rounded=1;whiteSpace=wrap;html=1;fontSize=16;fillColor=#d5e8d4;strokeColor=#82b366;" parent="1" vertex="1">
          <mxGeometry x="10" y="-60" width="140" height="130" as="geometry" />
        </mxCell>
        <mxCell id="KnodmlbBTQH3kh3YxPPO-29" value="Concurrency" style="rounded=1;whiteSpace=wrap;html=1;fontSize=16;fillColor=#d5e8d4;strokeColor=#82b366;" parent="1" vertex="1">
          <mxGeometry x="10" y="80" width="140" height="130" as="geometry" />
        </mxCell>
        <mxCell id="KnodmlbBTQH3kh3YxPPO-30" value="12" style="text;html=1;align=center;verticalAlign=middle;resizable=0;points=[];autosize=1;strokeColor=#666666;fillColor=#f5f5f5;fontSize=16;fontColor=#333333;" parent="1" vertex="1">
          <mxGeometry x="-66" y="585" width="40" height="30" as="geometry" />
        </mxCell>
        <mxCell id="KnodmlbBTQH3kh3YxPPO-31" value="" style="rounded=1;whiteSpace=wrap;html=1;fontSize=16;fillColor=#f5f5f5;strokeColor=#666666;fontColor=#333333;dashed=1;" parent="1" vertex="1">
          <mxGeometry x="10" y="640" width="140" height="60" as="geometry" />
        </mxCell>
        <mxCell id="KnodmlbBTQH3kh3YxPPO-32" value="" style="rounded=1;whiteSpace=wrap;html=1;fontSize=16;fillColor=#f5f5f5;strokeColor=#666666;fontColor=#333333;dashed=1;" parent="1" vertex="1">
          <mxGeometry x="190" y="640" width="140" height="60" as="geometry" />
        </mxCell>
        <mxCell id="KnodmlbBTQH3kh3YxPPO-33" value="13" style="text;html=1;align=center;verticalAlign=middle;resizable=0;points=[];autosize=1;strokeColor=#666666;fillColor=#f5f5f5;fontSize=16;fontColor=#333333;" parent="1" vertex="1">
          <mxGeometry x="-66" y="655" width="40" height="30" as="geometry" />
        </mxCell>
        <mxCell id="KnodmlbBTQH3kh3YxPPO-34" value="REST API" style="rounded=1;whiteSpace=wrap;html=1;fontSize=16;fillColor=#d5e8d4;strokeColor=#82b366;" parent="1" vertex="1">
          <mxGeometry x="10" y="220" width="140" height="130" as="geometry" />
        </mxCell>
        <mxCell id="KnodmlbBTQH3kh3YxPPO-35" value="Containerization &amp;amp; Persistance" style="rounded=1;whiteSpace=wrap;html=1;fontSize=16;fillColor=#d5e8d4;strokeColor=#82b366;" parent="1" vertex="1">
          <mxGeometry x="10" y="360" width="140" height="130" as="geometry" />
        </mxCell>
        <mxCell id="KnodmlbBTQH3kh3YxPPO-36" value="CI/CD &amp;amp; Metrics" style="rounded=1;whiteSpace=wrap;html=1;fontSize=16;fillColor=#d5e8d4;strokeColor=#82b366;" parent="1" vertex="1">
          <mxGeometry x="10" y="500" width="140" height="130" as="geometry" />
        </mxCell>
        <mxCell id="KnodmlbBTQH3kh3YxPPO-37" value="Workspace setup" style="rounded=1;whiteSpace=wrap;html=1;fontSize=16;fillColor=#dae8fc;strokeColor=#6c8ebf;" parent="1" vertex="1">
          <mxGeometry x="370" y="-200" width="140" height="60" as="geometry" />
        </mxCell>
        <mxCell id="KnodmlbBTQH3kh3YxPPO-38" value="" style="rounded=1;whiteSpace=wrap;html=1;fontSize=16;fillColor=#f5f5f5;strokeColor=#666666;fontColor=#333333;dashed=1;" parent="1" vertex="1">
          <mxGeometry x="10" y="-200" width="140" height="130" as="geometry" />
        </mxCell>
        <mxCell id="KnodmlbBTQH3kh3YxPPO-39" value="" style="rounded=1;whiteSpace=wrap;html=1;fontSize=16;fillColor=#f5f5f5;strokeColor=#666666;fontColor=#333333;dashed=1;" parent="1" vertex="1">
          <mxGeometry x="190" y="570" width="140" height="60" as="geometry" />
        </mxCell>
        <mxCell id="KnodmlbBTQH3kh3YxPPO-40" value="Katas" style="rounded=1;whiteSpace=wrap;html=1;fontSize=16;fillColor=#dae8fc;strokeColor=#6c8ebf;" parent="1" vertex="1">
          <mxGeometry x="370" y="-130" width="140" height="60" as="geometry" />
        </mxCell>
        <mxCell id="KnodmlbBTQH3kh3YxPPO-41" value="Options &amp;amp; Katas" style="rounded=1;whiteSpace=wrap;html=1;fontSize=16;fillColor=#dae8fc;strokeColor=#6c8ebf;" parent="1" vertex="1">
          <mxGeometry x="370" y="-60" width="140" height="60" as="geometry" />
        </mxCell>
        <mxCell id="KnodmlbBTQH3kh3YxPPO-42" value="Concurrency" style="rounded=1;whiteSpace=wrap;html=1;fontSize=16;fillColor=#dae8fc;strokeColor=#6c8ebf;" parent="1" vertex="1">
          <mxGeometry x="370" y="10" width="140" height="60" as="geometry" />
        </mxCell>
        <mxCell id="KnodmlbBTQH3kh3YxPPO-43" value="Generic datastructures" style="rounded=1;whiteSpace=wrap;html=1;fontSize=16;fillColor=#dae8fc;strokeColor=#6c8ebf;" parent="1" vertex="1">
          <mxGeometry x="370" y="80" width="140" height="60" as="geometry" />
        </mxCell>
        <mxCell id="KnodmlbBTQH3kh3YxPPO-44" value="Profiling" style="rounded=1;whiteSpace=wrap;html=1;fontSize=16;fillColor=#dae8fc;strokeColor=#6c8ebf;" parent="1" vertex="1">
          <mxGeometry x="370" y="150" width="140" height="60" as="geometry" />
        </mxCell>
        <mxCell id="KnodmlbBTQH3kh3YxPPO-45" value="net/http" style="rounded=1;whiteSpace=wrap;html=1;fontSize=16;fillColor=#dae8fc;strokeColor=#6c8ebf;" parent="1" vertex="1">
          <mxGeometry x="370" y="220" width="140" height="60" as="geometry" />
        </mxCell>
        <mxCell id="KnodmlbBTQH3kh3YxPPO-46" value="Docker" style="rounded=1;whiteSpace=wrap;html=1;fontSize=16;fillColor=#dae8fc;strokeColor=#6c8ebf;" parent="1" vertex="1">
          <mxGeometry x="370" y="290" width="140" height="60" as="geometry" />
        </mxCell>
        <mxCell id="KnodmlbBTQH3kh3YxPPO-47" value="databases/sql" style="rounded=1;whiteSpace=wrap;html=1;fontSize=16;fillColor=#dae8fc;strokeColor=#6c8ebf;" parent="1" vertex="1">
          <mxGeometry x="370" y="360" width="140" height="60" as="geometry" />
        </mxCell>
        <mxCell id="KnodmlbBTQH3kh3YxPPO-48" value="Caddy &amp;amp; GCP" style="rounded=1;whiteSpace=wrap;html=1;fontSize=16;fillColor=#dae8fc;strokeColor=#6c8ebf;" parent="1" vertex="1">
          <mxGeometry x="370" y="430" width="140" height="60" as="geometry" />
        </mxCell>
        <mxCell id="KnodmlbBTQH3kh3YxPPO-49" value="Prometheus &amp;amp; Grafana" style="rounded=1;whiteSpace=wrap;html=1;fontSize=16;fillColor=#dae8fc;strokeColor=#6c8ebf;" parent="1" vertex="1">
          <mxGeometry x="370" y="500" width="140" height="60" as="geometry" />
        </mxCell>
        <mxCell id="KnodmlbBTQH3kh3YxPPO-50" value="" style="rounded=1;whiteSpace=wrap;html=1;fontSize=16;fillColor=#f5f5f5;strokeColor=#666666;fontColor=#333333;dashed=1;" parent="1" vertex="1">
          <mxGeometry x="370" y="570" width="140" height="60" as="geometry" />
        </mxCell>
        <mxCell id="KnodmlbBTQH3kh3YxPPO-51" value="" style="rounded=1;whiteSpace=wrap;html=1;fontSize=16;fillColor=#f5f5f5;strokeColor=#666666;fontColor=#333333;dashed=1;" parent="1" vertex="1">
          <mxGeometry x="370" y="640" width="140" height="60" as="geometry" />
        </mxCell>
      </root>
    </mxGraphModel>
  </diagram>
</mxfile>
